# xmcd
#
# Track frame offsets:
#	150
#	22492
#	43615
#	67539
#	84123
#	99539
#	109266
#	128448
#	143044
#	163816
#	189185
#	209495
#	227697
#	242134
#	279681
#	301072
#	319224
#
# Disc length: 4445 seconds
#
# Revision: 0
# Processed by: cddbd v1.5PL3 Copyright (c) Steve Scherf et al.
# Submitted via: dBpowerAMP V4.0
#
DISCID=e3115b11
DTITLE=brock - rapity
DYEAR=1900
DGENRE=
TTITLE0=Track01ljh;bkn
TTITLE1=hvkjb/l.
TTITLE2=Track03cuydckvyu
TTITLE3=Track7 6f8ogp-hy04
TTITLE4=guitdsmjt3
TTITLE5=Traijglbkj,ck06
TTITLE6=lklnb 
TTITLE7=Track08ukyfkv
TTITLE8=lkh;l
TTITLE9=Track10hgjhv.
TTITLE10=njkjchcv 
TTITLE11=tuytdduv
TTITLE12=Tlgfrack13
TTITLE13=mjghkm
TTITLE14=hgf
TTITLE15=gfhmhgfv
TTITLE16=Tracj,hn.,mn.,k17
EXTD=this is home made remix
EXTT0=
EXTT1=
EXTT2=
EXTT3=
EXTT4=
EXTT5=
EXTT6=
EXTT7=
EXTT8=
EXTT9=
EXTT10=
EXTT11=
EXTT12=
EXTT13=
EXTT14=
EXTT15=
EXTT16=
PLAYORDER=
